# xmcd
#
# Track frame offsets:
# 150
# 22104
# 37622
# 58412
# 75296
# 88799
# 111989
# 129379
# 141832
# 157274
# 172218
# 192576
# 203755
# 218616
# 234286
# 253683
# 271147
# 289176
# 307995
# 320119
# 342294
#
# Disc length: 4791 seconds
#
#
# Revision: 0
# Processed by: cddbd v1.5.1PL2 Copyright (c) Steve Scherf et al.
# Submitted via: FreeRIP 2.944 
#
DISCID=3812b515
DTITLE=Rodney Crowell - Small Worlds
DYEAR=2002
DGENRE=Country
TTITLE0=Ain't Living Long Like This
TTITLE1=Leaving Louisiana in the Broad Daylight
TTITLE2=Shame On The Moon
TTITLE3=Stars On The Water
TTITLE4=Victim or a Fool
TTITLE5='Til I Gain Control Again
TTITLE6=When I'm Free Again
TTITLE7=The Best I Can
TTITLE8=It's Such a Small World
TTITLE9=She's Crazy For Leaving
TTITLE10=After All This Time
TTITLE11=Above and Beyond (The Call of Love)
TTITLE12=I Couldn't Leave You if I Tried
TTITLE13=If Looks Could Kill
TTITLE14=Many a Long and Lonesome Highway
TTITLE15=Lovin' All Night
TTITLE16=What Kind Of Love
TTITLE17=Let the Picture Paint Itself
TTITLE18=The Best Years of Our Lives
TTITLE19=Jewell of the South
TTITLE20=Please Remember Me
EXTD=
EXTT0=
EXTT1=
EXTT2=
EXTT3=
EXTT4=
EXTT5=
EXTT6=
EXTT7=
EXTT8=
EXTT9=
EXTT10=
EXTT11=
EXTT12=
EXTT13=
EXTT14=
EXTT15=
EXTT16=
EXTT17=
EXTT18=
EXTT19=
EXTT20=
PLAYORDER=
